<!-- <svg xmlns="http://www.w3.org/2000/svg" width="237" height="88" fill="none"><path d="M1 79.5v3.3c1.3.4 2.5.8 3.7 1.2 21.1 6.2 37.9 1 51.3-11.2 1.2-1.1 2.4-2.3 3.6-3.5C74.7 53.3 84.9 28.1 91.5 1" stroke-opacity="0.5" stroke="#C4DDF9"/><path d="M1 79.5c20.5-12.2 39.8-13.1 58.6-10.2 10.2 1.5 20.3 4.1 30.4 6.6C134.1 86.7 178.5 95.2 235.2 1H91.5" stroke-opacity="0.5" stroke="#C4DDF9"/><path d="M91.5 1h108.4C169 76.8 129.8 79.5 90 75.8c-11.3-1-22.7-2.6-34-3.1-17.7-.8-35 .9-51.3 11.2-1.2.8-2.5 1.7-3.7 2.6v-7" stroke-opacity="0.5" stroke="#C4DDF9"/></svg> -->

<svg xmlns="http://www.w3.org/2000/svg" width="318" height="305" fill="none"><mask id="a" maskUnits="userSpaceOnUse" x="0" y="0" width="318" height="305"><rect opacity=".5" width="318" height="305" rx="6" fill="#fff"/></mask><g mask="url(#a)" stroke="#C4DDF9"><path d="M-35.41 31.05h0a5.43 5.43 0 01-.9-9.26h.01L93.21-80.28h0c4.6-3.64 10.93 1.47 8.38 6.71h0L59.33 14.27l-.21.45.45.22 5.43 2.58h0l28.51 13.73h0l36.8 17.7h.01a5.5 5.5 0 011.02 9.27h0L1.77 160.27h0c-4.6 3.64-10.93-1.47-8.37-6.71h0l42.24-87.83.22-.45-.46-.22-5.43-2.58h0L-.7 47.71h0l-34.72-16.66z"/><path d="M74.26-22.6v-.01a3.1 3.1 0 01-.5-5.28h0l78.64-61.9h0c2.63-2.09 6.24.84 4.78 3.82h0l-25.65 53.28-.22.45.46.22 3.3 1.56h0l17.3 8.33h0l22.35 10.74h0c2.08.98 2.41 3.87.59 5.28h0L96.63 55.8h0c-2.63 2.09-6.24-.84-4.78-3.82h0L117.5-1.32l.21-.45-.45-.22-3.3-1.56h0L95.34-12.5h0L74.26-22.6zM234.75 281.71h0a2.15 2.15 0 01-.36-3.7h.01L293.56 232h0c1.9-1.49 4.44.62 3.42 2.68h0l-19.3 39.6-.22.46.46.21 2.48 1.16h0l13.02 6.2h0l16.82 7.98h0c1.48.69 1.7 2.71.41 3.7h0L251.45 340h0c-1.9 1.49-4.43-.62-3.4-2.68h0l19.29-39.6.22-.46-.46-.21-2.48-1.16h0l-14-6.66h-.01l-15.86-7.52z"/></g></svg>